HIERARCHY
ROOT hip
{
  OFFSET 0 0 0
  CHANNELS 6 Xposition Yposition Zposition Zrotation Yrotation Xrotation
  JOINT abdomen
  {
    OFFSET 0 20.6881 -0.73152
    CHANNELS 3 Zrotation Xrotation Yrotation
    JOINT chest
    {
      OFFSET 0 11.7043 -0.48768
      CHANNELS 3 Zrotation Xrotation Yrotation
      JOINT neck
      {
        OFFSET 0 22.1894 -2.19456
        CHANNELS 3 Zrotation Xrotation Yrotation
        JOINT head
        {
          OFFSET -0.24384 7.07133 1.2192
          CHANNELS 3 Zrotation Xrotation Yrotation
          JOINT leftEye
          {
            OFFSET 4.14528 8.04674 8.04672
            CHANNELS 3 Zrotation Xrotation Yrotation
            End Site
            {
              OFFSET 1 0 0
            }
          }
          JOINT rightEye
          {
            OFFSET -3.6576 8.04674 8.04672
            CHANNELS 3 Zrotation Xrotation Yrotation
            End Site
            {
              OFFSET 1 0 0
            }
          }
        }
      }
      JOINT rCollar
      {
        OFFSET -2.68224 19.2634 -4.8768
        CHANNELS 3 Zrotation Xrotation Yrotation
        JOINT rShldr
        {
          OFFSET -8.77824 -1.95073 1.46304
          CHANNELS 3 Zrotation Xrotation Yrotation
          JOINT rForeArm
          {
            OFFSET -28.1742 -1.7115 0.48768
            CHANNELS 3 Zrotation Xrotation Yrotation
            JOINT rHand
            {
              OFFSET -22.5879 0.773209 7.07136
              CHANNELS 3 Zrotation Xrotation Yrotation
              JOINT rThumb1
              {
                OFFSET -1.2192 -0.487915 3.41376
                CHANNELS 3 Zrotation Xrotation Yrotation
                JOINT rThumb2
                {
                  OFFSET -3.37035 -0.52449 3.41376
                  CHANNELS 3 Zrotation Xrotation Yrotation
                  End Site
                  {
                    OFFSET -1.78271 -1.18214 1.43049
                  }
                }
              }
              JOINT rIndex1
              {
                OFFSET -7.75947 0.938293 5.60832
                CHANNELS 3 Zrotation Xrotation Yrotation
                JOINT rIndex2
                {
                  OFFSET -2.54057 -0.884171 1.56538
                  CHANNELS 3 Zrotation Xrotation Yrotation
                  End Site
                  {
                    OFFSET -1.62519 -0.234802 1.16502
                  }
                }
              }
              JOINT rMid1
              {
                OFFSET -8.24714 1.18213 3.41376
                CHANNELS 3 Zrotation Xrotation Yrotation
                JOINT rMid2
                {
                  OFFSET -3.10165 -0.590103 1.0647
                  CHANNELS 3 Zrotation Xrotation Yrotation
                  End Site
                  {
                    OFFSET -2.48547 -0.328903 0.83742
                  }
                }
              }
              JOINT rRing1
              {
                OFFSET -8.82822 0.546677 1.51678
                CHANNELS 3 Zrotation Xrotation Yrotation
                JOINT rRing2
                {
                  OFFSET -2.60934 -0.819778 -0.0198488
                  CHANNELS 3 Zrotation Xrotation Yrotation
                  End Site
                  {
                    OFFSET -2.33842 -0.294052 0.168128
                  }
                }
              }
              JOINT rPinky1
              {
                OFFSET -8.27202 -0.0477905 -0.4584
                CHANNELS 3 Zrotation Xrotation Yrotation
                JOINT rPinky2
                {
                  OFFSET -1.82734 -0.647385 -0.700984
                  CHANNELS 3 Zrotation Xrotation Yrotation
                  End Site
                  {
                    OFFSET -1.69225 -0.51767 -0.607171
                  }
                }
              }
            }
          }
        }
      }
      JOINT lCollar
      {
        OFFSET 2.68224 19.2634 -4.8768
        CHANNELS 3 Zrotation Xrotation Yrotation
        JOINT lShldr
        {
          OFFSET 8.77824 -1.95073 1.46304
          CHANNELS 3 Zrotation Xrotation Yrotation
          JOINT lForeArm
          {
            OFFSET 28.1742 -1.7115 0.48768
            CHANNELS 3 Zrotation Xrotation Yrotation
            JOINT lHand
            {
              OFFSET 22.5879 0.773209 7.07136
              CHANNELS 3 Zrotation Xrotation Yrotation
              JOINT lThumb1
              {
                OFFSET 1.2192 -0.487915 3.41376
                CHANNELS 3 Zrotation Xrotation Yrotation
                JOINT lThumb2
                {
                  OFFSET 3.37035 -0.52449 3.41376
                  CHANNELS 3 Zrotation Xrotation Yrotation
                  End Site
                  {
                    OFFSET 1.78271 -1.18214 1.43049
                  }
                }
              }
              JOINT lIndex1
              {
                OFFSET 7.75947 0.938293 5.60832
                CHANNELS 3 Zrotation Xrotation Yrotation
                JOINT lIndex2
                {
                  OFFSET 2.54057 -0.884171 1.56538
                  CHANNELS 3 Zrotation Xrotation Yrotation
                  End Site
                  {
                    OFFSET 1.62519 -0.234802 1.16502
                  }
                }
              }
              JOINT lMid1
              {
                OFFSET 8.24714 1.18213 3.41376
                CHANNELS 3 Zrotation Xrotation Yrotation
                JOINT lMid2
                {
                  OFFSET 3.10165 -0.590103 1.0647
                  CHANNELS 3 Zrotation Xrotation Yrotation
                  End Site
                  {
                    OFFSET 2.48547 -0.328903 0.83742
                  }
                }
              }
              JOINT lRing1
              {
                OFFSET 8.82822 0.546677 1.51678
                CHANNELS 3 Zrotation Xrotation Yrotation
                JOINT lRing2
                {
                  OFFSET 2.60934 -0.819778 -0.0198488
                  CHANNELS 3 Zrotation Xrotation Yrotation
                  End Site
                  {
                    OFFSET 2.33842 -0.294052 0.168128
                  }
                }
              }
              JOINT lPinky1
              {
                OFFSET 8.27202 -0.0477905 -0.4584
                CHANNELS 3 Zrotation Xrotation Yrotation
                JOINT lPinky2
                {
                  OFFSET 1.82734 -0.647385 -0.700984
                  CHANNELS 3 Zrotation Xrotation Yrotation
                  End Site
                  {
                    OFFSET 1.69225 -0.51767 -0.607171
                  }
                }
              }
            }
          }
        }
      }
    }
  }
  JOINT rButtock
  {
    OFFSET -8.77824 4.35084 1.2192
    CHANNELS 3 Zrotation Xrotation Yrotation
    JOINT rThigh
    {
      OFFSET 0 -1.70687 -2.19456
      CHANNELS 3 Zrotation Xrotation Yrotation
      JOINT rShin
      {
        OFFSET 0 -36.8199 0.73152
        CHANNELS 3 Zrotation Xrotation Yrotation
        JOINT rFoot
        {
          OFFSET 0.73152 -45.1104 -5.12064
          CHANNELS 3 Zrotation Xrotation Yrotation
          End Site
          {
            OFFSET -1.1221 -3.69964 12.103
          }
        }
      }
    }
  }
  JOINT lButtock
  {
    OFFSET 8.77824 4.35084 1.2192
    CHANNELS 3 Zrotation Xrotation Yrotation
    JOINT lThigh
    {
      OFFSET 0 -1.70687 -2.19456
      CHANNELS 3 Zrotation Xrotation Yrotation
      JOINT lShin
      {
        OFFSET 0 -36.8199 0.73152
        CHANNELS 3 Zrotation Xrotation Yrotation
        JOINT lFoot
        {
          OFFSET -0.73152 -45.1104 -5.12064
          CHANNELS 3 Zrotation Xrotation Yrotation
          End Site
          {
            OFFSET 1.1221 -3.69964 12.103
          }
        }
      }
    }
  }
}
MOTION
Frames:	5
Frame Time:	0.00833333
67.5943 85.2368 -252.725 0.0 0.0 0.0 0.717223 -0.00360071 0.0202301 0.197726 -0.00495971 0.0342585 -2.26415e-14 1.59028e-15 -1.61513e-16 -6.80247e-14 9.54166e-15 -5.63741e-16 -0.0 0.0 0.0 -0.0 0.0 0.0 -1.11832e-14 1.49477e-17 4.96962e-17 -2.38252e-13 4.65902e-16 -1.78906e-15 -4.11276e-12 1.2432e-12 -1.59028e-14 -4.709e-11 -1.16957e-12 -4.45278e-13 -1.11081e-10 1.5864e-13 -9.63708e-13 -1.91851e-10 2.73528e-13 -1.66979e-12 -1.11075e-10 1.59823e-13 -9.7643e-13 7.73091 5.47488 0.417314 -1.11083e-10 1.58133e-13 -9.63708e-13 2.90554 0.965183 0.102902 -1.11076e-10 1.58829e-13 -9.65298e-13 10.2786 0.731801 0.0259123 -1.11085e-10 1.63003e-13 -9.60528e-13 2.22167 -0.733487 -0.20892 -1.14789e-14 1.47535e-17 -2.48481e-16 -2.39772e-13 2.91965e-16 -3.18055e-15 -4.11758e-12 -1.22272e-12 3.81667e-14 -4.70989e-11 1.29287e-12 -4.67542e-13 -1.111e-10 1.52656e-13 -9.63708e-13 -1.91856e-10 2.60805e-13 -1.65866e-12 -1.11106e-10 1.53462e-13 -9.57347e-13 -7.73091 5.47488 -0.417314 -1.11099e-10 1.5217e-13 -9.63708e-13 -2.90554 0.965183 -0.102902 -1.11098e-10 1.52368e-13 -9.65298e-13 -10.2786 0.731801 -0.0259123 -1.11094e-10 1.5704e-13 -9.70069e-13 -2.22167 -0.733487 0.20892 -2.03217e-16 0.0 -3.88251e-19 1.07375 -4.87152 -0.0898513 -0.00140707 3.27153 0.00104086 -0.534878 1.59984 0.0939875 2.03217e-16 0.0 3.88251e-19 0.0161205 -2.15037 0.0188743 0.00888011 -1.65734 0.0750325 0.527142 3.80744 -0.138612
65.9735 83.2592 -253.722 -4.8419 -8.0854 2.9661 1.40668 3.63359 0.771644 1.4258 0.408189 0.263751 -3.66837 1.72981 0.894914 2.13265 7.11535 1.8236 -0.0 0.0 0.0 -0.0 0.0 0.0 7.87275e-14 7.26754e-15 3.81294e-14 20.8488 1.5865 -0.154655 -4.38152 -2.02404 6.80714 0.0147473 -2.69704 -0.377534 -5.11266e-10 8.29247e-11 5.31176e-10 -8.85072e-10 1.45145e-10 9.16513e-10 -5.11262e-10 8.29267e-11 5.31161e-10 7.73091 5.47488 0.417314 -5.11267e-10 8.29254e-11 5.31175e-10 2.90554 0.965183 0.102902 -5.11261e-10 8.29258e-11 5.31173e-10 10.2786 0.731801 0.0259123 -5.1127e-10 8.29281e-11 5.31177e-10 2.22167 -0.733487 -0.20892 7.84822e-14 7.26519e-15 3.78595e-14 -20.8717 0.0441993 -0.532601 6.58298 -3.68279 -9.42017 -0.000504441 0.500214 -0.0702909 -9.76496e-10 -1.05383e-09 -1.89108e-10 -1.68844e-09 -1.82408e-09 -3.23758e-10 -9.765e-10 -1.05383e-09 -1.891e-10 -7.73091 5.47488 -0.417314 -9.76495e-10 -1.05383e-09 -1.89113e-10 -2.90554 0.965183 -0.102902 -9.76498e-10 -1.05383e-09 -1.89111e-10 -10.2786 0.731801 -0.0259123 -9.76491e-10 -1.05382e-09 -1.89117e-10 -2.22167 -0.733487 0.20892 -2.03217e-16 0.0 -3.88251e-19 2.42082 -11.0132 -1.12316 0.013012 14.3635 0.177581 -0.844202 -3.63307 -2.27322 2.03217e-16 0.0 3.88251e-19 2.78478 -9.54802 -0.788362 -0.0122288 14.7544 -0.14878 0.402956 0.812253 -1.17603
65.8674 83.2364 -253.654 -4.9405 -7.4612 2.9587 2.0152 7.46872 1.5577 2.72713 0.847984 0.500321 -7.60469 3.55407 1.8446 3.88179 14.6122 3.84864 -0.0 0.0 0.0 -0.0 0.0 0.0 1.7522e-13 1.51164e-14 7.9986e-14 42.9155 3.26767 -0.324749 -8.49573 -4.06944 14.0324 -0.00845235 -5.53368 -0.777453 -9.38261e-10 1.89321e-10 1.11026e-09 -1.62482e-09 3.31115e-10 1.91578e-09 -9.38259e-10 1.89324e-10 1.11024e-09 7.73091 5.47488 0.417314 -9.38262e-10 1.89324e-10 1.11025e-09 2.90554 0.965183 0.102902 -9.38256e-10 1.89324e-10 1.11025e-09 10.2786 0.731801 0.0259123 -9.38264e-10 1.89324e-10 1.11026e-09 2.22167 -0.733487 -0.20892 1.75025e-13 1.51115e-14 7.97468e-14 -42.9323 0.0918401 -1.10286 12.2432 -7.24515 -19.5023 0.000302676 1.03418 -0.145343 -1.90785e-09 -2.21203e-09 -3.80913e-10 -3.29908e-09 -3.82884e-09 -6.51886e-10 -1.90785e-09 -2.21203e-09 -3.80903e-10 -7.73091 5.47488 -0.417314 -1.90785e-09 -2.21203e-09 -3.80923e-10 -2.90554 0.965183 -0.102902 -1.90785e-09 -2.21203e-09 -3.80916e-10 -10.2786 0.731801 -0.0259123 -1.90784e-09 -2.21203e-09 -3.80924e-10 -2.22167 -0.733487 0.20892 -2.03217e-16 0.0 -3.88251e-19 3.57874 -17.5056 -2.28359 -0.0541089 26.0976 0.392822 -1.64921 -9.13773 -4.83821 2.03217e-16 0.0 3.88251e-19 5.44703 -17.319 -1.71908 0.124802 32.0573 -0.442187 0.157202 -2.40184 -2.23893
65.7568 83.2187 -253.571 -5.0658 -6.8446 2.9303 2.49497 10.9003 2.31155 3.87202 1.2344 0.722883 -11.1677 5.18436 2.69455 4.95723 21.2563 5.82625 -0.0 0.0 0.0 -0.0 0.0 0.0 2.58549e-13 2.17727e-14 1.14289e-13 62.5723 4.75937 -0.465392 -11.7296 -5.73001 20.5157 -0.0632915 -8.08972 -1.14272 -1.31164e-09 2.48457e-10 1.59546e-09 -2.27151e-09 4.34887e-10 2.75288e-09 -1.31164e-09 2.4846e-10 1.59544e-09 7.73091 5.47488 0.417314 -1.31164e-09 2.4846e-10 1.59545e-09 2.90554 0.965183 0.102902 -1.31163e-09 2.4846e-10 1.59545e-09 10.2786 0.731801 0.0259123 -1.31164e-09 2.48458e-10 1.59545e-09 2.22167 -0.733487 -0.20892 2.58404e-13 2.1766e-14 1.14076e-13 -62.6128 0.132552 -1.59781 16.2354 -9.85534 -28.6628 0.00216974 1.50063 -0.210937 -2.70729e-09 -3.16179e-09 -5.65398e-10 -4.68161e-09 -5.47277e-09 -9.67958e-10 -2.70729e-09 -3.16179e-09 -5.65386e-10 -7.73091 5.47488 -0.417314 -2.70729e-09 -3.16179e-09 -5.65412e-10 -2.90554 0.965183 -0.102902 -2.7073e-09 -3.16179e-09 -5.65402e-10 -10.2786 0.731801 -0.0259123 -2.70729e-09 -3.16179e-09 -5.6541e-10 -2.22167 -0.733487 0.20892 -2.03217e-16 0.0 -3.88251e-19 4.3969 -23.2661 -3.40561 -0.20711 36.546 0.639818 -2.78852 -14.0003 -7.20907 2.03217e-16 0.0 3.88251e-19 7.64387 -24.3238 -2.60107 0.472652 47.5747 -0.862159 -0.171465 -5.16927 -3.26441
65.6581 83.2475 -253.457 -5.181 -6.5293 2.89 2.84686 13.3293 2.95213 4.63253 1.48745 0.910293 -13.6828 6.33455 3.28588 5.39478 25.8541 7.34782 -0.0 0.0 0.0 -0.0 0.0 0.0 3.08967e-13 2.54475e-14 1.29707e-13 76.1842 5.77757 -0.530906 -13.7509 -6.75517 25.0543 -0.122874 -9.94555 -1.41211 -1.55096e-09 1.89439e-10 1.84595e-09 -2.68559e-09 3.33163e-10 3.18453e-09 -1.55096e-09 1.89443e-10 1.84593e-09 7.73091 5.47488 0.417314 -1.55096e-09 1.89442e-10 1.84595e-09 2.90554 0.965183 0.102902 -1.55095e-09 1.89442e-10 1.84595e-09 10.2786 0.731801 0.0259123 -1.55096e-09 1.89439e-10 1.84595e-09 2.22167 -0.733487 -0.20892 3.08876e-13 2.54409e-14 1.29508e-13 -76.3451 0.155991 -1.90447 18.4924 -11.2261 -35.1345 0.00396794 1.79832 -0.252821 -3.17695e-09 -3.59044e-09 -7.31582e-10 -5.49391e-09 -6.21466e-09 -1.25389e-09 -3.17695e-09 -3.59044e-09 -7.31569e-10 -7.73091 5.47488 -0.417314 -3.17695e-09 -3.59045e-09 -7.31598e-10 -2.90554 0.965183 -0.102902 -3.17696e-09 -3.59044e-09 -7.31586e-10 -10.2786 0.731801 -0.0259123 -3.17695e-09 -3.59045e-09 -7.31594e-10 -2.22167 -0.733487 0.20892 -2.03217e-16 0.0 -3.88251e-19 4.89686 -27.2253 -4.23738 -0.387449 43.7819 0.867767 -3.80858 -17.356 -8.89181 2.03217e-16 0.0 3.88251e-19 9.19678 -29.4333 -3.17179 0.99204 58.6303 -1.39944 -0.484977 -6.82821 -4.17773
